HIERARCHY
ROOT Hips
{
 OFFSET 0.000000 0.000000 0.000000
 CHANNELS 6 Xposition Yposition Zposition Yrotation Xrotation Zrotation
 JOINT Chest
 {
  OFFSET 0.000000 9.303000 0.001900
  CHANNELS 3 Yrotation Xrotation Zrotation
  JOINT Chest2
  {
   OFFSET 0.000000 9.301100 -0.003900
   CHANNELS 3 Yrotation Xrotation Zrotation
   JOINT Chest3
   {
    OFFSET 0.000000 9.262800 0.000000
    CHANNELS 3 Yrotation Xrotation Zrotation
    JOINT Chest4
    {
     OFFSET 0.000000 9.253300 0.000000
     CHANNELS 3 Yrotation Xrotation Zrotation
     JOINT Neck
     {
      OFFSET 0.000000 14.010300 0.000000
      CHANNELS 3 Yrotation Xrotation Zrotation
      JOINT Head
      {
       OFFSET 0.000000 8.657600 -0.008300
       CHANNELS 3 Yrotation Xrotation Zrotation
       End Site
       {
        OFFSET 0.000000 16.540200 -0.004400
       }
      }
     }
     JOINT RightCollar
     {
      OFFSET -2.834100 9.267700 0.000000
      CHANNELS 3 Yrotation Xrotation Zrotation
      JOINT RightShoulder
      {
       OFFSET -13.135200 0.000000 0.000000
       CHANNELS 3 Yrotation Xrotation Zrotation
       JOINT RightElbow
       {
        OFFSET 0.000000 -28.893500 0.000000
        CHANNELS 3 Yrotation Xrotation Zrotation
        JOINT RightWrist
        {
         OFFSET 0.000000 -23.344000 0.000000
         CHANNELS 3 Yrotation Xrotation Zrotation
         End Site
         {
          OFFSET 0.000000 -17.223000 0.000000
         }
        }
       }
      }
     }
     JOINT LeftCollar
     {
      OFFSET 2.834100 9.267700 0.000000
      CHANNELS 3 Yrotation Xrotation Zrotation
      JOINT LeftShoulder
      {
       OFFSET 13.135200 0.000000 0.000000
       CHANNELS 3 Yrotation Xrotation Zrotation
       JOINT LeftElbow
       {
        OFFSET 0.000000 -28.893500 0.000000
        CHANNELS 3 Yrotation Xrotation Zrotation
        JOINT LeftWrist
        {
         OFFSET 0.000000 -23.344000 0.000000
         CHANNELS 3 Yrotation Xrotation Zrotation
         End Site
         {
          OFFSET 0.000000 -17.223000 0.000000
         }
        }
       }
      }
     }
    }
   }
  }
 }
 JOINT RightHip
 {
  OFFSET -7.547200 -0.009500 -0.001000
  CHANNELS 3 Yrotation Xrotation Zrotation
  JOINT RightKnee
  {
   OFFSET 0.000000 -39.762800 0.000900
   CHANNELS 3 Yrotation Xrotation Zrotation
   JOINT RightAnkle
   {
    OFFSET 0.000000 -38.588200 0.001600
    CHANNELS 3 Yrotation Xrotation Zrotation
    JOINT RightToe
    {
     OFFSET 0.000000 -4.693300 10.419700
     CHANNELS 3 Yrotation Xrotation Zrotation
     End Site
     {
      OFFSET 0.000000 -1.379900 5.669300
     }
    }
   }
  }
 }
 JOINT LeftHip
 {
  OFFSET 7.547200 -0.009500 -0.001000
  CHANNELS 3 Yrotation Xrotation Zrotation
  JOINT LeftKnee
  {
   OFFSET 0.000000 -39.762800 0.000900
   CHANNELS 3 Yrotation Xrotation Zrotation
   JOINT LeftAnkle
   {
    OFFSET 0.000000 -38.588200 0.001600
    CHANNELS 3 Yrotation Xrotation Zrotation
    JOINT LeftToe
    {
     OFFSET 0.000000 -4.693300 10.419700
     CHANNELS 3 Yrotation Xrotation Zrotation
     End Site
     {
      OFFSET 0.000000 -1.379900 5.669300
     }
    }
   }
  }
 }
}
MOTION
Frames: 12
Frame Time: 0.008333
24.660677 45.729809 -8.787542 160.021076 -22.328041 0.325721 3.962906 14.901205 2.966966 0.365721 1.419839 0.221974 0.561069 2.393025 0.431486 3.557590 13.251979 2.602391 1.013015 13.418323 -3.891948 1.984601 -11.522504 -4.379693 10.627160 3.882521 -5.836753 17.231636 -27.807345 -15.252970 22.081125 -30.414061 -15.041351 -1.025992 -6.091630 -33.848273 -15.396335 -2.052683 -6.870945 -2.940226 -27.064928 12.584205 -11.426484 -29.759412 5.944998 -4.238040 -10.991685 27.310129 -4.202845 -65.740793 8.113314 -105.836410 83.063875 -107.370039 -12.457214 -7.488186 0.309330 -0.011434 -0.019882 0.047071 -0.625073 -65.264158 22.305594 105.038585 78.161892 106.552188 -10.814074 -10.410831 -0.493951 -0.009592 0.043453 0.006966
24.659698 45.726355 -8.789235 160.038317 -22.340928 0.334181 3.970634 14.907810 2.933890 0.346596 1.424319 0.240985 0.585455 2.391292 0.409651 3.565908 13.254019 2.603295 0.996271 13.435849 -3.861312 1.962163 -11.524229 -4.350562 10.663160 3.899745 -5.902802 17.190826 -27.824308 -15.190921 22.047873 -30.407985 -15.044992 -1.019213 -6.105790 -33.853431 -15.361861 -2.061689 -6.915169 -2.988176 -27.064266 12.603241 -11.473407 -29.754524 5.975779 -4.222196 -11.004475 27.318270 -4.177126 -65.732390 8.094844 -105.845676 83.053749 -107.394753 -12.586265 -7.493098 0.333567 -0.038159 -0.013944 0.037986 -0.598620 -65.253989 22.270416 105.049990 78.172831 106.555807 -10.814234 -10.410230 -0.481211 -0.005085 0.043692 0.004904
24.662907 45.721984 -8.787425 160.035636 -22.337243 0.318010 4.036048 14.894166 2.916743 0.324111 1.426794 0.264879 0.588642 2.392204 0.407747 3.578115 13.256500 2.596014 0.979347 13.476241 -3.831898 1.931257 -11.550573 -4.310419 10.659703 3.899634 -5.910005 17.205975 -27.816365 -15.178720 22.017169 -30.396906 -15.046948 -1.027353 -6.125650 -33.862416 -15.367758 -2.061914 -6.908634 -2.987951 -27.077319 12.583523 -11.473627 -29.774427 5.987245 -4.240723 -10.998410 27.316490 -4.205790 -65.738674 8.138766 -105.906077 83.057871 -107.487038 -12.403038 -7.495024 0.333347 -0.012383 -0.012202 0.042827 -0.619560 -65.259837 22.312741 105.066751 78.170096 106.558112 -10.816321 -10.423555 -0.457417 -0.016525 0.053269 -0.001652
24.668244 45.718075 -8.786202 160.036855 -22.338422 0.288028 4.068765 14.890268 2.929751 0.352321 1.426240 0.237926 0.581486 2.393733 0.418341 3.592710 13.257582 2.594412 0.949147 13.480401 -3.776673 1.903213 -11.521270 -4.267123 10.649512 3.895242 -5.910711 17.249415 -27.792393 -15.184761 22.007325 -30.379703 -15.057945 -1.105035 -6.149504 -33.889155 -15.398577 -2.057203 -6.871479 -2.959454 -27.100136 12.544350 -11.478713 -29.790304 5.996079 -4.254751 -10.997249 27.311007 -4.217128 -65.748885 8.210410 -105.961212 83.018746 -107.558783 -12.282910 -7.488030 0.338448 0.027742 -0.019016 0.056207 -0.667481 -65.262447 22.380256 105.073723 78.175321 106.564061 -10.818647 -10.434018 -0.448857 -0.021819 0.064071 -0.001827
24.670017 45.714799 -8.787775 160.054182 -22.346027 0.276930 4.078238 14.894772 2.917098 0.354172 1.426920 0.236877 0.573582 2.393470 0.430696 3.615452 13.261880 2.570401 0.928071 13.484478 -3.732073 1.855626 -11.460662 -4.187844 10.640968 3.890827 -5.908461 17.239619 -27.798310 -15.161929 21.995379 -30.376122 -15.058949 -1.073270 -6.161116 -33.880466 -15.416786 -2.055202 -6.844619 -2.943698 -27.117338 12.521695 -11.483952 -29.803521 5.999183 -4.252017 -11.002971 27.302969 -4.207794 -65.748055 8.219809 -106.003043 82.999566 -107.611458 -12.269936 -7.485903 0.357675 0.025645 -0.021800 0.049781 -0.671844 -65.259705 22.383256 105.092170 78.183457 106.582020 -10.822846 -10.442156 -0.439109 -0.021347 0.068615 -0.002095
24.671458 45.711866 -8.790036 160.058309 -22.354753 0.272694 4.099772 14.898951 2.902882 0.355997 1.427930 0.235705 0.573185 2.397926 0.429197 3.623267 13.260820 2.568506 0.917473 13.504033 -3.700232 1.820301 -11.429552 -4.128154 10.647785 3.889012 -5.929325 17.274562 -27.770644 -15.156530 21.926421 -30.394951 -15.062513 -1.047271 -6.179126 -33.877376 -15.415481 -2.065671 -6.840937 -2.932586 -27.129630 12.504122 -11.525117 -29.793441 6.016061 -4.235980 -11.013361 27.297553 -4.189346 -65.744652 8.224051 -106.068317 82.990363 -107.688384 -12.259640 -7.488345 0.378303 -0.003976 -0.021689 0.039076 -0.656508 -65.255627 22.377913 105.112066 78.192557 106.605760 -10.828251 -10.448950 -0.433032 -0.016308 0.067819 -0.003333
24.673393 45.710089 -8.794619 160.081748 -22.377686 0.261711 4.091755 14.918715 2.898234 0.363233 1.427703 0.229241 0.610537 2.398158 0.393140 3.616642 13.263913 2.587889 0.896157 13.523066 -3.659518 1.804479 -11.431910 -4.099253 10.652123 3.883369 -5.954797 17.267214 -27.762746 -15.120922 21.900138 -30.396241 -15.061478 -1.039089 -6.206653 -33.886173 -15.426391 -2.077484 -6.827284 -2.912778 -27.147734 12.480890 -11.541133 -29.800098 6.015793 -4.277248 -10.986263 27.295051 -4.203090 -65.723484 8.228138 -106.172378 82.992761 -107.805423 -12.241662 -7.494679 0.379388 0.020507 -0.023401 0.044113 -0.652760 -65.237630 22.365117 105.117585 78.201058 106.621393 -10.831296 -10.453820 -0.437566 -0.013621 0.069777 0.003445
24.673867 45.707566 -8.797115 160.092105 -22.383482 0.258412 4.094186 14.921324 2.889908 0.358002 1.429382 0.234587 0.631119 2.396542 0.373941 3.640266 13.269304 2.568107 0.874763 13.545698 -3.608410 1.783912 -11.436689 -4.070560 10.642711 3.874191 -5.958881 17.258036 -27.756900 -15.092179 21.887607 -30.390721 -15.058886 -1.000659 -6.246797 -33.891428 -15.429852 -2.094439 -6.820974 -2.932668 -27.146942 12.493800 -11.535000 -29.808889 6.000091 -4.274752 -10.996196 27.301746 -4.176073 -65.722494 8.217268 -106.308118 82.991357 -107.968562 -12.161761 -7.502214 0.405175 0.017160 -0.020658 0.045093 -0.644811 -65.234562 22.354921 105.117211 78.208029 106.618577 -10.830071 -10.453233 -0.428094 -0.016015 0.070755 0.002747
24.674632 45.705606 -8.800123 160.101072 -22.393172 0.253583 4.133903 14.915854 2.863056 0.337949 1.438254 0.253058 0.632104 2.395284 0.374003 3.636708 13.272660 2.575262 0.866342 13.571121 -3.594373 1.753829 -11.415390 -4.022626 10.659033 3.876536 -5.995915 17.248193 -27.748899 -15.065005 21.875528 -30.389222 -15.060446 -1.016076 -6.267300 -33.901769 -15.420896 -2.104159 -6.829379 -2.931182 -27.156793 12.487798 -11.560207 -29.797396 6.002770 -4.239944 -11.018322 27.312212 -4.133943 -65.718592 8.212538 -106.285717 82.957431 -107.936356 -12.233638 -7.503066 0.412628 0.022939 -0.019485 0.047457 -0.639053 -65.226850 22.349495 105.131971 78.208532 106.630004 -10.833727 -10.459458 -0.416152 -0.019227 0.071573 -0.000496
24.674012 45.704447 -8.804663 160.113018 -22.409912 0.257213 4.142975 14.925219 2.842469 0.339166 1.437555 0.250846 0.629913 2.398413 0.379467 3.637024 13.274990 2.576176 0.864441 13.622487 -3.578751 1.701567 -11.364016 -3.931136 10.660604 3.876151 -6.004308 17.270803 -27.729573 -15.071178 21.853497 -30.388587 -15.056733 -1.041080 -6.282377 -33.915446 -15.431098 -2.103048 -6.816488 -2.910546 -27.171030 12.467739 -11.570762 -29.792314 5.999375 -4.209362 -11.037104 27.316641 -4.118606 -65.704004 8.199286 -106.297920 82.949351 -107.948300 -12.337850 -7.505071 0.424413 -0.010523 -0.019695 0.035059 -0.565648 -65.219680 22.286437 105.117857 78.220853 106.636312 -10.856022 -10.460583 -0.410030 -0.005780 0.068965 0.001175
24.673820 45.703081 -8.807337 160.131064 -22.416860 0.250259 4.136785 14.928566 2.836195 0.372730 1.429321 0.220886 0.594755 2.407699 0.414911 3.689512 13.269061 2.518529 0.831111 13.652930 -3.500290 1.686175 -11.363893 -3.908526 10.624511 3.870285 -5.956181 17.295363 -27.710286 -15.078641 21.824854 -30.388737 -15.054204 -1.046446 -6.310137 -33.916715 -15.468388 -2.092572 -6.770796 -2.933640 -27.159313 12.487347 -11.534517 -29.803490 5.971858 -4.165480 -11.071802 27.316321 -4.121646 -65.699523 8.209223 -106.378782 82.950127 -108.057980 -12.303139 -7.504719 0.448737 -0.010379 -0.020938 0.031772 -0.566203 -65.214946 22.277630 105.106309 78.218481 106.621320 -10.855788 -10.460579 -0.409241 -0.013929 0.069992 0.008212
24.674962 45.701601 -8.808038 160.135438 -22.415474 0.234587 4.144492 14.923067 2.842444 0.382493 1.427196 0.211325 0.597057 2.406780 0.411842 3.701558 13.269331 2.512973 0.818958 13.684658 -3.461225 1.672621 -11.364828 -3.887743 10.632295 3.871260 -5.971611 17.291090 -27.698247 -15.059315 21.790827 -30.384902 -15.050501 -1.054565 -6.339590 -33.912009 -15.458732 -2.106217 -6.775281 -2.946290 -27.148823 12.502001 -11.531049 -29.804460 5.944590 -4.169174 -11.077593 27.321303 -4.150237 -65.702237 8.250214 -106.422135 82.941399 -108.114909 -12.225795 -7.507557 0.448280 0.004278 -0.021338 0.034150 -0.582770 -65.218439 22.301775 105.090870 78.221213 106.601209 -10.851925 -10.460572 -0.401719 -0.023584 0.072758 0.009725
